{
.appVersion = "895";
copyright = "Copyright 2016 Google Inc. All Rights Reserved.";
customParameters = (
{
name = description;
value = "Designed by Monotype design team.";
},
{
name = license;
value = "This Font Software is licensed under the SIL Open Font License, Version 1.1. This Font Software is distributed on an \"AS IS\" BASIS, WITHOUT WARRANTIES OR CONDITIONS OF ANY KIND, either express or implied. See the SIL Open Font License for the specific language, permissions and limitations governing your use of this Font Software.";
},
{
name = licenseURL;
value = "http://scripts.sil.org/OFL";
},
{
name = vendorID;
value = GOOG;
},
{
name = trademark;
value = "Noto is a trademark of Google Inc.";
},
{
name = fsType;
value = ();
},
{
name = panose;
value = (
2,
11,
5,
2,
4,
5,
4,
2,
2,
4
);
},
{
name = unicodeRanges;
value = (
57
);
},
{
name = codePageRanges;
value = (
1252
);
}
);
date = "2016-11-10 14:16:06 +0000";
designer = "Monotype Design Team";
designerURL = "http://www.monotype.com/studio";
familyName = "Noto Sans Old Turkic";
fontMaster = (
{
ascender = 2189;
capHeight = 1528;
customParameters = (
{
name = typoAscender;
value = 2189;
},
{
name = typoDescender;
value = -600;
},
{
name = typoLineGap;
value = 0;
},
{
name = winAscent;
value = 2189;
},
{
name = winDescent;
value = 600;
},
{
name = hheaAscender;
value = 2189;
},
{
name = hheaDescender;
value = -600;
},
{
name = underlinePosition;
value = -205;
},
{
name = underlineThickness;
value = 102;
}
);
descender = -600;
id = "5A681328-F9F0-479A-9637-309C8B5A293D";
weightValue = 400;
widthValue = 5;
xHeight = 1069;
}
);
glyphs = (
{
glyphname = .notdef;
lastChange = "2016-11-10 14:15:44 +0000";
layers = (
{
layerId = "5A681328-F9F0-479A-9637-309C8B5A293D";
paths = (
{
closed = 1;
nodes = (
"1034 0 LINE",
"1034 1462 LINE",
"193 1462 LINE",
"193 0 LINE"
);
},
{
closed = 1;
nodes = (
"297 1358 LINE",
"930 1358 LINE",
"930 104 LINE",
"297 104 LINE"
);
}
);
width = 1229;
}
);
note = .notdef;
},
{
glyphname = g4;
lastChange = "2016-11-10 14:15:44 +0000";
layers = (
{
layerId = "5A681328-F9F0-479A-9637-309C8B5A293D";
paths = (
{
closed = 1;
nodes = (
"756 0 LINE",
"756 1253 LINE",
"1204 932 LINE",
"1305 1075 LINE",
"756 1462 LINE",
"571 1462 LINE",
"571 211 LINE",
"145 516 LINE",
"41 367 LINE",
"571 0 LINE"
);
}
);
width = 1346;
}
);
note = g4;
},
{
glyphname = g5;
lastChange = "2016-11-10 14:15:44 +0000";
layers = (
{
layerId = "5A681328-F9F0-479A-9637-309C8B5A293D";
paths = (
{
closed = 1;
nodes = (
"774 0 LINE",
"1305 367 LINE",
"1200 516 LINE",
"774 211 LINE",
"774 1462 LINE",
"590 1462 LINE",
"41 1075 LINE",
"141 932 LINE",
"590 1253 LINE",
"590 0 LINE"
);
}
);
width = 1346;
}
);
note = g5;
},
{
glyphname = g6;
lastChange = "2016-11-10 14:15:44 +0000";
layers = (
{
layerId = "5A681328-F9F0-479A-9637-309C8B5A293D";
paths = (
{
closed = 1;
nodes = (
"559 414 LINE",
"877 -29 LINE",
"1026 63 LINE",
"653 580 LINE",
"653 872 LINE",
"1026 1389 LINE",
"877 1481 LINE",
"559 1038 LINE",
"242 1481 LINE",
"92 1389 LINE",
"465 872 LINE",
"465 580 LINE",
"92 63 LINE",
"242 -29 LINE"
);
}
);
width = 1118;
}
);
note = g6;
},
{
glyphname = g7;
lastChange = "2016-11-10 14:15:44 +0000";
layers = (
{
layerId = "5A681328-F9F0-479A-9637-309C8B5A293D";
paths = (
{
closed = 1;
nodes = (
"389 0 LINE",
"389 1253 LINE",
"838 932 LINE",
"938 1075 LINE",
"389 1462 LINE",
"205 1462 LINE",
"205 0 LINE"
);
}
);
width = 979;
}
);
note = g7;
},
{
glyphname = g8;
lastChange = "2016-11-10 14:15:44 +0000";
layers = (
{
layerId = "5A681328-F9F0-479A-9637-309C8B5A293D";
paths = (
{
closed = 1;
nodes = (
"389 0 LINE",
"389 719 LINE",
"838 397 LINE",
"938 541 LINE",
"389 928 LINE",
"389 1462 LINE",
"205 1462 LINE",
"205 0 LINE"
);
}
);
width = 979;
}
);
note = g8;
},
{
glyphname = g9;
lastChange = "2016-11-10 14:15:44 +0000";
layers = (
{
layerId = "5A681328-F9F0-479A-9637-309C8B5A293D";
paths = (
{
closed = 1;
nodes = (
"332 46 OFFCURVE",
"431 113 OFFCURVE",
"520 184 CURVE",
"607 114 OFFCURVE",
"708 47 OFFCURVE",
"821 -18 CURVE",
"920 115 LINE",
"819 172 OFFCURVE",
"728 232 OFFCURVE",
"647 297 CURVE",
"788 442 OFFCURVE",
"858 589 OFFCURVE",
"858 739 CURVE SMOOTH",
"858 887 OFFCURVE",
"788 1034 OFFCURVE",
"647 1180 CURVE",
"728 1245 OFFCURVE",
"819 1307 OFFCURVE",
"920 1364 CURVE",
"821 1497 LINE",
"706 1432 OFFCURVE",
"606 1364 OFFCURVE",
"520 1294 CURVE",
"433 1365 OFFCURVE",
"334 1432 OFFCURVE",
"221 1497 CURVE",
"123 1364 LINE",
"222 1306 OFFCURVE",
"312 1245 OFFCURVE",
"395 1180 CURVE",
"254 1034 OFFCURVE",
"184 887 OFFCURVE",
"184 739 CURVE SMOOTH",
"184 589 OFFCURVE",
"254 442 OFFCURVE",
"395 297 CURVE",
"312 233 OFFCURVE",
"222 172 OFFCURVE",
"123 115 CURVE",
"221 -18 LINE"
);
},
{
closed = 1;
nodes = (
"417 523 OFFCURVE",
"365 632 OFFCURVE",
"365 739 CURVE SMOOTH",
"365 844 OFFCURVE",
"417 952 OFFCURVE",
"520 1065 CURVE",
"625 954 OFFCURVE",
"678 845 OFFCURVE",
"678 739 CURVE SMOOTH",
"678 632 OFFCURVE",
"625 523 OFFCURVE",
"520 412 CURVE"
);
}
);
width = 1042;
}
);
note = g9;
},
{
glyphname = g10;
lastChange = "2016-11-10 14:15:44 +0000";
layers = (
{
layerId = "5A681328-F9F0-479A-9637-309C8B5A293D";
paths = (
{
closed = 1;
nodes = (
"389 0 LINE",
"389 96 LINE SMOOTH",
"389 272 OFFCURVE",
"411 336 OFFCURVE",
"464 414 CURVE SMOOTH",
"516 492 OFFCURVE",
"608 580 OFFCURVE",
"793 731 CURVE",
"605 883 OFFCURVE",
"515 972 OFFCURVE",
"463 1050 CURVE SMOOTH",
"410 1128 OFFCURVE",
"389 1193 OFFCURVE",
"389 1366 CURVE SMOOTH",
"389 1462 LINE",
"205 1462 LINE",
"205 1329 LINE SMOOTH",
"205 1230 OFFCURVE",
"215 1151 OFFCURVE",
"234 1093 CURVE SMOOTH",
"273 977 OFFCURVE",
"357 868 OFFCURVE",
"524 731 CURVE",
"441 662 OFFCURVE",
"377 600 OFFCURVE",
"332 543 CURVE SMOOTH",
"240 429 OFFCURVE",
"205 334 OFFCURVE",
"205 133 CURVE SMOOTH",
"205 0 LINE"
);
}
);
width = 844;
}
);
note = g10;
},
{
glyphname = g11;
lastChange = "2016-11-10 14:15:44 +0000";
layers = (
{
layerId = "5A681328-F9F0-479A-9637-309C8B5A293D";
paths = (
{
closed = 1;
nodes = (
"389 0 LINE",
"389 1204 LINE",
"893 637 LINE",
"1077 637 LINE",
"1077 1462 LINE",
"893 1462 LINE",
"893 903 LINE",
"389 1462 LINE",
"205 1462 LINE",
"205 0 LINE"
);
}
);
width = 1231;
}
);
note = g11;
},
{
glyphname = g12;
lastChange = "2016-11-10 14:15:44 +0000";
layers = (
{
layerId = "5A681328-F9F0-479A-9637-309C8B5A293D";
paths = (
{
closed = 1;
nodes = (
"389 0 LINE",
"389 854 LINE",
"952 530 LINE",
"1063 623 LINE",
"1010 752 OFFCURVE",
"983 885 OFFCURVE",
"983 1022 CURVE SMOOTH",
"983 1173 OFFCURVE",
"1028 1319 OFFCURVE",
"1118 1462 CURVE",
"924 1462 LINE",
"852 1331 OFFCURVE",
"805 1197 OFFCURVE",
"805 1032 CURVE SMOOTH",
"805 930 OFFCURVE",
"817 846 OFFCURVE",
"840 780 CURVE",
"389 1042 LINE",
"389 1462 LINE",
"205 1462 LINE",
"205 0 LINE"
);
}
);
width = 1241;
}
);
note = g12;
},
{
glyphname = g13;
lastChange = "2016-11-10 14:15:44 +0000";
layers = (
{
layerId = "5A681328-F9F0-479A-9637-309C8B5A293D";
paths = (
{
closed = 1;
nodes = (
"705 -20 OFFCURVE",
"794 3 OFFCURVE",
"873 48 CURVE SMOOTH",
"1030 139 OFFCURVE",
"1124 309 OFFCURVE",
"1124 496 CURVE SMOOTH",
"1124 575 OFFCURVE",
"1114 647 OFFCURVE",
"1093 710 CURVE SMOOTH",
"1052 837 OFFCURVE",
"990 926 OFFCURVE",
"807 1079 CURVE SMOOTH",
"739 1136 OFFCURVE",
"719 1178 OFFCURVE",
"719 1237 CURVE SMOOTH",
"719 1462 LINE",
"535 1462 LINE",
"535 1231 LINE SMOOTH",
"535 1100 OFFCURVE",
"577 1030 OFFCURVE",
"700 930 CURVE SMOOTH",
"885 774 OFFCURVE",
"940 663 OFFCURVE",
"940 496 CURVE SMOOTH",
"940 287 OFFCURVE",
"807 150 OFFCURVE",
"610 150 CURVE SMOOTH",
"410 150 OFFCURVE",
"287 286 OFFCURVE",
"287 485 CURVE SMOOTH",
"287 602 OFFCURVE",
"322 722 OFFCURVE",
"371 803 CURVE",
"184 803 LINE",
"135 731 OFFCURVE",
"102 610 OFFCURVE",
"102 485 CURVE SMOOTH",
"102 385 OFFCURVE",
"122 297 OFFCURVE",
"163 220 CURVE SMOOTH",
"244 66 OFFCURVE",
"402 -20 OFFCURVE",
"606 -20 CURVE SMOOTH"
);
}
);
width = 1227;
}
);
note = g13;
},
{
glyphname = g14;
lastChange = "2016-11-10 14:15:44 +0000";
layers = (
{
layerId = "5A681328-F9F0-479A-9637-309C8B5A293D";
paths = (
{
closed = 1;
nodes = (
"1534 731 LINE",
"782 1483 LINE",
"31 731 LINE",
"152 610 LINE",
"782 1241 LINE",
"1292 731 LINE",
"662 100 LINE",
"782 -20 LINE"
);
}
);
width = 1565;
}
);
note = g14;
},
{
glyphname = g15;
lastChange = "2016-11-10 14:15:44 +0000";
layers = (
{
layerId = "5A681328-F9F0-479A-9637-309C8B5A293D";
paths = (
{
closed = 1;
nodes = (
"301 0 LINE",
"596 358 LINE",
"891 0 LINE",
"1114 0 LINE",
"715 471 LINE",
"1114 944 LINE",
"688 1462 LINE",
"496 1462 LINE",
"78 944 LINE",
"477 471 LINE",
"78 0 LINE"
);
},
{
closed = 1;
nodes = (
"289 948 LINE",
"592 1327 LINE",
"903 948 LINE",
"596 586 LINE"
);
}
);
width = 1192;
}
);
note = g15;
},
{
glyphname = g16;
lastChange = "2016-11-10 14:15:44 +0000";
layers = (
{
layerId = "5A681328-F9F0-479A-9637-309C8B5A293D";
paths = (
{
closed = 1;
nodes = (
"489 0 LINE",
"795 348 LINE",
"1098 0 LINE",
"1313 0 LINE",
"901 471 LINE",
"1212 825 LINE",
"1454 578 LINE",
"1561 686 LINE",
"797 1483 LINE",
"31 686 LINE",
"143 578 LINE",
"379 823 LINE",
"686 471 LINE",
"274 0 LINE"
);
},
{
closed = 1;
nodes = (
"492 942 LINE",
"797 1257 LINE",
"1100 942 LINE",
"795 594 LINE"
);
}
);
width = 1591;
}
);
note = g16;
},
{
glyphname = g17;
lastChange = "2016-11-10 14:15:44 +0000";
layers = (
{
layerId = "5A681328-F9F0-479A-9637-309C8B5A293D";
paths = (
{
closed = 1;
nodes = (
"1425 618 LINE",
"1206 737 OFFCURVE",
"1090 868 OFFCURVE",
"1090 981 CURVE SMOOTH",
"1090 1084 OFFCURVE",
"1201 1213 OFFCURVE",
"1425 1341 CURVE",
"1329 1475 LINE",
"1048 1314 OFFCURVE",
"907 1150 OFFCURVE",
"907 981 CURVE SMOOTH",
"907 818 OFFCURVE",
"1041 658 OFFCURVE",
"1329 485 CURVE"
);
},
{
closed = 1;
nodes = (
"844 0 LINE",
"844 768 LINE",
"662 768 LINE",
"662 0 LINE"
);
},
{
closed = 1;
nodes = (
"467 660 OFFCURVE",
"600 820 OFFCURVE",
"600 981 CURVE SMOOTH",
"600 1148 OFFCURVE",
"459 1312 OFFCURVE",
"178 1475 CURVE",
"82 1341 LINE",
"306 1213 OFFCURVE",
"418 1084 OFFCURVE",
"418 981 CURVE SMOOTH",
"418 874 OFFCURVE",
"313 743 OFFCURVE",
"82 618 CURVE",
"178 485 LINE"
);
}
);
width = 1507;
}
);
note = g17;
},
{
glyphname = g18;
lastChange = "2016-11-10 14:15:44 +0000";
layers = (
{
layerId = "5A681328-F9F0-479A-9637-309C8B5A293D";
paths = (
{
closed = 1;
nodes = (
"1292 694 LINE",
"1292 1462 LINE",
"1108 1462 LINE",
"1108 694 LINE"
);
},
{
closed = 1;
nodes = (
"825 0 LINE",
"825 768 LINE",
"641 768 LINE",
"641 0 LINE"
);
},
{
closed = 1;
nodes = (
"358 694 LINE",
"358 1462 LINE",
"174 1462 LINE",
"174 694 LINE"
);
}
);
width = 1466;
}
);
note = g18;
},
{
glyphname = g19;
lastChange = "2016-11-10 14:15:44 +0000";
layers = (
{
layerId = "5A681328-F9F0-479A-9637-309C8B5A293D";
paths = (
{
closed = 1;
nodes = (
"776 115 LINE",
"453 294 OFFCURVE",
"283 519 OFFCURVE",
"283 760 CURVE SMOOTH",
"283 806 OFFCURVE",
"286 843 OFFCURVE",
"291 872 CURVE",
"815 520 LINE",
"920 657 LINE",
"350 1034 LINE",
"405 1125 OFFCURVE",
"494 1211 OFFCURVE",
"618 1294 CURVE",
"885 1077 LINE",
"993 1204 LINE",
"637 1497 LINE",
"265 1281 OFFCURVE",
"102 1057 OFFCURVE",
"102 760 CURVE SMOOTH",
"102 467 OFFCURVE",
"301 202 OFFCURVE",
"678 -18 CURVE"
);
}
);
width = 1024;
}
);
note = g19;
},
{
glyphname = g20;
lastChange = "2016-11-10 14:15:44 +0000";
layers = (
{
layerId = "5A681328-F9F0-479A-9637-309C8B5A293D";
paths = (
{
closed = 1;
nodes = (
"518 414 LINE",
"836 -29 LINE",
"985 63 LINE",
"610 580 LINE",
"610 1022 LINE",
"784 1229 LINE",
"991 1024 LINE",
"1120 1147 LINE",
"784 1483 LINE",
"426 1075 LINE",
"426 580 LINE",
"51 63 LINE",
"201 -29 LINE"
);
}
);
width = 1151;
}
);
note = g20;
},
{
glyphname = g21;
lastChange = "2016-11-10 14:15:44 +0000";
layers = (
{
layerId = "5A681328-F9F0-479A-9637-309C8B5A293D";
paths = (
{
closed = 1;
nodes = (
"1227 369 LINE",
"1227 377 LINE",
"879 709 LINE",
"879 717 LINE",
"1227 1085 LINE",
"1227 1094 LINE",
"844 1511 LINE",
"700 1397 LINE",
"981 1094 LINE",
"981 1085 LINE",
"629 717 LINE",
"629 707 LINE",
"981 377 LINE",
"981 369 LINE",
"659 61 LINE",
"778 -68 LINE"
);
},
{
closed = 1;
nodes = (
"639 369 LINE",
"639 377 LINE",
"291 709 LINE",
"291 717 LINE",
"639 1085 LINE",
"639 1094 LINE",
"256 1511 LINE",
"113 1397 LINE",
"393 1094 LINE",
"393 1085 LINE",
"41 717 LINE",
"41 707 LINE",
"393 377 LINE",
"393 369 LINE",
"72 61 LINE",
"190 -68 LINE"
);
}
);
width = 1268;
}
);
note = g21;
},
{
glyphname = g22;
lastChange = "2016-11-10 14:15:44 +0000";
layers = (
{
layerId = "5A681328-F9F0-479A-9637-309C8B5A293D";
paths = (
{
closed = 1;
nodes = (
"1303 76 LINE",
"879 483 LINE",
"879 492 LINE",
"1352 985 LINE",
"1352 993 LINE",
"852 1511 LINE",
"709 1397 LINE",
"1106 993 LINE",
"1106 985 LINE",
"629 492 LINE",
"629 481 LINE",
"1184 -49 LINE"
);
},
{
closed = 1;
nodes = (
"715 76 LINE",
"291 483 LINE",
"291 492 LINE",
"764 985 LINE",
"764 993 LINE",
"264 1511 LINE",
"121 1397 LINE",
"518 993 LINE",
"518 985 LINE",
"41 492 LINE",
"41 481 LINE",
"596 -49 LINE"
);
}
);
width = 1393;
}
);
note = g22;
},
{
glyphname = g23;
lastChange = "2016-11-10 14:15:44 +0000";
layers = (
{
layerId = "5A681328-F9F0-479A-9637-309C8B5A293D";
paths = (
{
closed = 1;
nodes = (
"203 0 LINE",
"596 635 LINE",
"983 0 LINE",
"1192 0 LINE",
"705 766 LINE",
"1157 1462 LINE",
"963 1462 LINE",
"602 889 LINE",
"244 1462 LINE",
"39 1462 LINE",
"494 762 LINE",
"8 0 LINE"
);
}
);
width = 1200;
}
);
note = g23;
},
{
glyphname = g24;
lastChange = "2016-11-10 14:15:44 +0000";
layers = (
{
layerId = "5A681328-F9F0-479A-9637-309C8B5A293D";
paths = (
{
closed = 1;
nodes = (
"338 0 LINE",
"338 647 LINE",
"713 647 LINE",
"713 0 LINE",
"897 0 LINE",
"897 647 LINE",
"1456 647 LINE",
"1456 1462 LINE",
"1272 1462 LINE",
"1272 819 LINE",
"897 819 LINE",
"897 1462 LINE",
"713 1462 LINE",
"713 819 LINE",
"154 819 LINE",
"154 0 LINE"
);
}
);
width = 1610;
}
);
note = g24;
},
{
glyphname = g25;
lastChange = "2016-11-10 14:15:44 +0000";
layers = (
{
layerId = "5A681328-F9F0-479A-9637-309C8B5A293D";
paths = (
{
closed = 1;
nodes = (
"897 0 LINE",
"897 643 LINE",
"1272 643 LINE",
"1272 0 LINE",
"1456 0 LINE",
"1456 815 LINE",
"897 815 LINE",
"897 1462 LINE",
"713 1462 LINE",
"713 815 LINE",
"338 815 LINE",
"338 1462 LINE",
"154 1462 LINE",
"154 643 LINE",
"713 643 LINE",
"713 0 LINE"
);
}
);
width = 1610;
}
);
note = g25;
},
{
glyphname = g26;
lastChange = "2016-11-10 14:15:44 +0000";
layers = (
{
layerId = "5A681328-F9F0-479A-9637-309C8B5A293D";
paths = (
{
closed = 1;
nodes = (
"805 177 OFFCURVE",
"1087 459 OFFCURVE",
"1087 739 CURVE SMOOTH",
"1087 1030 OFFCURVE",
"851 1274 OFFCURVE",
"334 1483 CURVE",
"205 1417 LINE",
"205 47 LINE",
"338 -12 LINE"
);
},
{
closed = 1;
nodes = (
"389 1274 LINE",
"722 1123 OFFCURVE",
"903 936 OFFCURVE",
"903 735 CURVE SMOOTH",
"903 672 OFFCURVE",
"883 609 OFFCURVE",
"843 544 CURVE SMOOTH",
"762 414 OFFCURVE",
"589 282 OFFCURVE",
"389 195 CURVE"
);
}
);
width = 1190;
}
);
note = g26;
},
{
glyphname = g27;
lastChange = "2016-11-10 14:15:44 +0000";
layers = (
{
layerId = "5A681328-F9F0-479A-9637-309C8B5A293D";
paths = (
{
closed = 1;
nodes = (
"907 55 OFFCURVE",
"1021 85 OFFCURVE",
"1128 146 CURVE SMOOTH",
"1343 266 OFFCURVE",
"1468 483 OFFCURVE",
"1468 735 CURVE SMOOTH",
"1468 862 OFFCURVE",
"1438 977 OFFCURVE",
"1377 1080 CURVE SMOOTH",
"1255 1287 OFFCURVE",
"1029 1411 OFFCURVE",
"788 1411 CURVE SMOOTH",
"665 1411 OFFCURVE",
"550 1382 OFFCURVE",
"444 1323 CURVE SMOOTH",
"231 1206 OFFCURVE",
"102 986 OFFCURVE",
"102 737 CURVE SMOOTH",
"102 609 OFFCURVE",
"131 494 OFFCURVE",
"190 391 CURVE SMOOTH",
"307 186 OFFCURVE",
"533 55 OFFCURVE",
"786 55 CURVE SMOOTH"
);
},
{
closed = 1;
nodes = (
"694 221 OFFCURVE",
"610 243 OFFCURVE",
"534 288 CURVE SMOOTH",
"381 376 OFFCURVE",
"289 542 OFFCURVE",
"289 735 CURVE SMOOTH",
"289 831 OFFCURVE",
"311 918 OFFCURVE",
"354 997 CURVE SMOOTH",
"441 1153 OFFCURVE",
"604 1247 OFFCURVE",
"788 1247 CURVE SMOOTH",
"878 1247 OFFCURVE",
"961 1225 OFFCURVE",
"1037 1182 CURVE SMOOTH",
"1189 1094 OFFCURVE",
"1280 928 OFFCURVE",
"1280 735 CURVE SMOOTH",
"1280 637 OFFCURVE",
"1259 549 OFFCURVE",
"1216 471 CURVE SMOOTH",
"1131 314 OFFCURVE",
"970 221 OFFCURVE",
"786 221 CURVE SMOOTH"
);
}
);
width = 1571;
}
);
note = g27;
},
{
glyphname = g28;
lastChange = "2016-11-10 14:15:44 +0000";
layers = (
{
layerId = "5A681328-F9F0-479A-9637-309C8B5A293D";
paths = (
{
closed = 1;
nodes = (
"719 0 LINE",
"719 229 LINE SMOOTH",
"719 289 OFFCURVE",
"739 336 OFFCURVE",
"807 393 CURVE SMOOTH",
"888 460 OFFCURVE",
"950 522 OFFCURVE",
"993 580 CURVE SMOOTH",
"1079 696 OFFCURVE",
"1124 830 OFFCURVE",
"1124 995 CURVE SMOOTH",
"1124 1082 OFFCURVE",
"1104 1164 OFFCURVE",
"1063 1239 CURVE SMOOTH",
"981 1390 OFFCURVE",
"822 1483 OFFCURVE",
"633 1483 CURVE SMOOTH",
"310 1483 OFFCURVE",
"102 1279 OFFCURVE",
"102 967 CURVE SMOOTH",
"102 839 OFFCURVE",
"133 730 OFFCURVE",
"184 659 CURVE",
"371 659 LINE",
"322 738 OFFCURVE",
"287 858 OFFCURVE",
"287 973 CURVE SMOOTH",
"287 1177 OFFCURVE",
"413 1313 OFFCURVE",
"612 1313 CURVE SMOOTH",
"815 1313 OFFCURVE",
"940 1176 OFFCURVE",
"940 963 CURVE SMOOTH",
"940 802 OFFCURVE",
"873 673 OFFCURVE",
"705 532 CURVE SMOOTH",
"577 427 OFFCURVE",
"535 359 OFFCURVE",
"535 231 CURVE SMOOTH",
"535 0 LINE"
);
}
);
width = 1227;
}
);
note = g28;
},
{
glyphname = g29;
lastChange = "2016-11-10 14:15:44 +0000";
layers = (
{
layerId = "5A681328-F9F0-479A-9637-309C8B5A293D";
paths = (
{
closed = 1;
nodes = (
"389 0 LINE",
"389 375 LINE",
"794 546 OFFCURVE",
"987 719 OFFCURVE",
"987 924 CURVE SMOOTH",
"987 1140 OFFCURVE",
"767 1326 OFFCURVE",
"328 1481 CURVE",
"205 1401 LINE",
"205 0 LINE"
);
},
{
closed = 1;
nodes = (
"389 1288 LINE",
"654 1172 OFFCURVE",
"803 1043 OFFCURVE",
"803 915 CURVE SMOOTH",
"803 793 OFFCURVE",
"665 671 OFFCURVE",
"389 549 CURVE"
);
}
);
width = 1090;
}
);
note = g29;
},
{
glyphname = g30;
lastChange = "2016-11-10 14:15:44 +0000";
layers = (
{
layerId = "5A681328-F9F0-479A-9637-309C8B5A293D";
paths = (
{
closed = 1;
nodes = (
"774 0 LINE",
"774 1153 LINE",
"141 1528 LINE",
"41 1384 LINE",
"590 1059 LINE",
"590 735 LINE",
"141 1004 LINE",
"41 860 LINE",
"590 535 LINE",
"590 0 LINE"
);
}
);
width = 979;
}
);
note = g30;
},
{
glyphname = g31;
lastChange = "2016-11-10 14:15:44 +0000";
layers = (
{
layerId = "5A681328-F9F0-479A-9637-309C8B5A293D";
paths = (
{
closed = 1;
nodes = (
"649 0 LINE",
"649 522 LINE",
"1083 977 LINE",
"557 1483 LINE",
"436 1362 LINE",
"842 977 LINE",
"557 672 LINE",
"152 1057 LINE",
"31 936 LINE",
"465 522 LINE",
"465 0 LINE"
);
}
);
width = 1114;
}
);
note = g31;
},
{
glyphname = g32;
lastChange = "2016-11-10 14:15:44 +0000";
layers = (
{
layerId = "5A681328-F9F0-479A-9637-309C8B5A293D";
paths = (
{
closed = 1;
nodes = (
"389 0 LINE",
"389 631 LINE",
"907 631 LINE",
"907 0 LINE",
"1092 0 LINE",
"1092 803 LINE",
"389 803 LINE",
"389 1290 LINE",
"907 1290 LINE",
"907 1055 LINE",
"1092 1055 LINE",
"1092 1462 LINE",
"205 1462 LINE",
"205 0 LINE"
);
}
);
width = 1296;
}
);
note = g32;
},
{
glyphname = g33;
lastChange = "2016-11-10 14:15:44 +0000";
layers = (
{
layerId = "5A681328-F9F0-479A-9637-309C8B5A293D";
paths = (
{
closed = 1;
nodes = (
"737 87 OFFCURVE",
"952 235 OFFCURVE",
"952 418 CURVE SMOOTH",
"952 541 OFFCURVE",
"840 658 OFFCURVE",
"653 727 CURVE",
"861 828 OFFCURVE",
"952 927 OFFCURVE",
"952 1067 CURVE SMOOTH",
"952 1152 OFFCURVE",
"901 1229 OFFCURVE",
"800 1298 CURVE SMOOTH",
"698 1366 OFFCURVE",
"543 1428 OFFCURVE",
"334 1483 CURVE",
"205 1417 LINE",
"205 47 LINE",
"338 -12 LINE"
);
},
{
closed = 1;
nodes = (
"389 692 LINE",
"516 646 OFFCURVE",
"611 598 OFFCURVE",
"674 549 CURVE SMOOTH",
"737 499 OFFCURVE",
"768 453 OFFCURVE",
"768 410 CURVE SMOOTH",
"768 368 OFFCURVE",
"734 324 OFFCURVE",
"667 279 CURVE SMOOTH",
"599 233 OFFCURVE",
"506 193 OFFCURVE",
"389 160 CURVE"
);
},
{
closed = 1;
nodes = (
"389 1290 LINE",
"511 1257 OFFCURVE",
"605 1219 OFFCURVE",
"670 1176 CURVE SMOOTH",
"735 1133 OFFCURVE",
"768 1089 OFFCURVE",
"768 1042 CURVE SMOOTH",
"768 994 OFFCURVE",
"740 948 OFFCURVE",
"684 905 CURVE SMOOTH",
"627 862 OFFCURVE",
"529 812 OFFCURVE",
"389 756 CURVE"
);
}
);
width = 1055;
}
);
note = g33;
},
{
glyphname = g34;
lastChange = "2016-11-10 14:15:44 +0000";
layers = (
{
layerId = "5A681328-F9F0-479A-9637-309C8B5A293D";
paths = (
{
closed = 1;
nodes = (
"774 0 LINE",
"774 1462 LINE",
"590 1462 LINE",
"590 209 LINE",
"141 530 LINE",
"41 387 LINE",
"590 0 LINE"
);
}
);
width = 979;
}
);
note = g34;
},
{
glyphname = g35;
lastChange = "2016-11-10 14:15:44 +0000";
layers = (
{
layerId = "5A681328-F9F0-479A-9637-309C8B5A293D";
paths = (
{
closed = 1;
nodes = (
"707 0 LINE",
"1225 1419 LINE",
"1049 1481 LINE",
"709 528 LINE SMOOTH",
"660 388 OFFCURVE",
"629 280 OFFCURVE",
"614 205 CURVE",
"597 290 OFFCURVE",
"565 396 OFFCURVE",
"520 524 CURVE SMOOTH",
"176 1481 LINE",
"2 1419 LINE",
"522 0 LINE"
);
}
);
width = 1229;
}
);
note = g35;
},
{
glyphname = g36;
lastChange = "2016-11-10 14:15:44 +0000";
layers = (
{
layerId = "5A681328-F9F0-479A-9637-309C8B5A293D";
paths = (
{
closed = 1;
nodes = (
"672 0 LINE",
"672 874 LINE",
"1047 1391 LINE",
"897 1483 LINE",
"580 1040 LINE",
"262 1483 LINE",
"113 1391 LINE",
"487 874 LINE",
"487 0 LINE"
);
}
);
width = 1159;
}
);
note = g36;
},
{
glyphname = g37;
lastChange = "2016-11-10 14:15:44 +0000";
layers = (
{
layerId = "5A681328-F9F0-479A-9637-309C8B5A293D";
paths = (
{
closed = 1;
nodes = (
"375 0 LINE",
"375 1196 LINE",
"764 858 LINE",
"1155 1196 LINE",
"1155 0 LINE",
"1337 0 LINE",
"1337 1454 LINE",
"1241 1475 LINE",
"766 1075 LINE",
"301 1475 LINE",
"205 1454 LINE",
"205 0 LINE"
);
}
);
width = 1542;
}
);
note = g37;
},
{
glyphname = g38;
lastChange = "2016-11-10 14:15:44 +0000";
layers = (
{
layerId = "5A681328-F9F0-479A-9637-309C8B5A293D";
paths = (
{
closed = 1;
nodes = (
"1577 725 LINE",
"780 1491 LINE",
"672 1378 LINE",
"918 1143 LINE",
"565 836 LINE",
"94 1247 LINE",
"94 1032 LINE",
"442 727 LINE",
"94 424 LINE",
"94 209 LINE",
"565 621 LINE",
"920 309 LINE",
"672 68 LINE",
"780 -39 LINE"
);
},
{
closed = 1;
nodes = (
"688 727 LINE",
"1036 1030 LINE",
"1352 725 LINE",
"1036 422 LINE"
);
}
);
width = 1608;
}
);
note = g38;
},
{
glyphname = g39;
lastChange = "2016-11-10 14:15:44 +0000";
layers = (
{
layerId = "5A681328-F9F0-479A-9637-309C8B5A293D";
paths = (
{
closed = 1;
nodes = (
"574 229 OFFCURVE",
"786 481 OFFCURVE",
"786 739 CURVE SMOOTH",
"786 1000 OFFCURVE",
"595 1238 OFFCURVE",
"150 1497 CURVE",
"51 1354 LINE",
"408 1143 OFFCURVE",
"602 942 OFFCURVE",
"602 739 CURVE SMOOTH",
"602 541 OFFCURVE",
"419 337 OFFCURVE",
"53 127 CURVE",
"150 -18 LINE"
);
}
);
width = 909;
}
);
note = g39;
},
{
glyphname = g40;
lastChange = "2016-11-10 14:15:44 +0000";
layers = (
{
layerId = "5A681328-F9F0-479A-9637-309C8B5A293D";
paths = (
{
closed = 1;
nodes = (
"338 0 LINE",
"338 586 LINE",
"731 340 LINE",
"731 0 LINE",
"915 0 LINE",
"915 901 LINE",
"1309 678 LINE",
"1493 678 LINE",
"1493 1462 LINE",
"1309 1462 LINE",
"1309 874 LINE",
"915 1100 LINE",
"915 1462 LINE",
"731 1462 LINE",
"731 539 LINE",
"338 782 LINE",
"154 782 LINE",
"154 0 LINE"
);
}
);
width = 1647;
}
);
note = g40;
},
{
glyphname = g41;
lastChange = "2016-11-10 14:15:44 +0000";
layers = (
{
layerId = "5A681328-F9F0-479A-9637-309C8B5A293D";
paths = (
{
closed = 1;
nodes = (
"338 0 LINE",
"338 559 LINE",
"842 0 LINE",
"1026 0 LINE",
"1026 1204 LINE",
"1530 637 LINE",
"1714 637 LINE",
"1714 1462 LINE",
"1530 1462 LINE",
"1530 903 LINE",
"1026 1462 LINE",
"842 1462 LINE",
"842 258 LINE",
"338 825 LINE",
"154 825 LINE",
"154 0 LINE"
);
}
);
width = 1868;
}
);
note = g41;
},
{
glyphname = g42;
lastChange = "2016-11-10 14:15:44 +0000";
layers = (
{
layerId = "5A681328-F9F0-479A-9637-309C8B5A293D";
paths = (
{
closed = 1;
nodes = (
"948 55 OFFCURVE",
"1062 85 OFFCURVE",
"1169 146 CURVE SMOOTH",
"1384 266 OFFCURVE",
"1509 483 OFFCURVE",
"1509 735 CURVE SMOOTH",
"1509 932 OFFCURVE",
"1430 1110 OFFCURVE",
"1286 1239 CURVE",
"1167 1114 LINE",
"1263 1023 OFFCURVE",
"1321 892 OFFCURVE",
"1321 735 CURVE SMOOTH",
"1321 637 OFFCURVE",
"1300 549 OFFCURVE",
"1257 471 CURVE SMOOTH",
"1172 314 OFFCURVE",
"1011 221 OFFCURVE",
"827 221 CURVE SMOOTH",
"735 221 OFFCURVE",
"651 243 OFFCURVE",
"575 288 CURVE SMOOTH",
"422 376 OFFCURVE",
"330 542 OFFCURVE",
"330 735 CURVE SMOOTH",
"330 898 OFFCURVE",
"392 1033 OFFCURVE",
"496 1124 CURVE",
"373 1245 LINE",
"224 1118 OFFCURVE",
"143 938 OFFCURVE",
"143 737 CURVE SMOOTH",
"143 609 OFFCURVE",
"172 494 OFFCURVE",
"231 391 CURVE SMOOTH",
"348 186 OFFCURVE",
"574 55 OFFCURVE",
"827 55 CURVE SMOOTH"
);
},
{
closed = 1;
nodes = (
"897 442 OFFCURVE",
"942 482 OFFCURVE",
"942 549 CURVE SMOOTH",
"942 614 OFFCURVE",
"901 655 OFFCURVE",
"834 655 CURVE SMOOTH",
"771 655 OFFCURVE",
"723 622 OFFCURVE",
"723 549 CURVE SMOOTH",
"723 474 OFFCURVE",
"771 442 OFFCURVE",
"834 442 CURVE SMOOTH"
);
},
{
closed = 1;
nodes = (
"729 731 OFFCURVE",
"772 775 OFFCURVE",
"772 840 CURVE SMOOTH",
"772 904 OFFCURVE",
"728 946 OFFCURVE",
"664 946 CURVE SMOOTH",
"604 946 OFFCURVE",
"555 913 OFFCURVE",
"555 840 CURVE SMOOTH",
"555 765 OFFCURVE",
"604 731 OFFCURVE",
"664 731 CURVE SMOOTH"
);
},
{
closed = 1;
nodes = (
"1069 743 OFFCURVE",
"1110 787 OFFCURVE",
"1110 850 CURVE SMOOTH",
"1110 913 OFFCURVE",
"1071 956 OFFCURVE",
"1004 956 CURVE SMOOTH",
"941 956 OFFCURVE",
"893 923 OFFCURVE",
"893 850 CURVE SMOOTH",
"893 778 OFFCURVE",
"941 743 OFFCURVE",
"1004 743 CURVE SMOOTH"
);
}
);
width = 1653;
}
);
note = g42;
},
{
glyphname = g43;
lastChange = "2016-11-10 14:15:44 +0000";
layers = (
{
layerId = "5A681328-F9F0-479A-9637-309C8B5A293D";
paths = (
{
closed = 1;
nodes = (
"948 55 OFFCURVE",
"1062 85 OFFCURVE",
"1169 146 CURVE SMOOTH",
"1384 266 OFFCURVE",
"1509 483 OFFCURVE",
"1509 735 CURVE SMOOTH",
"1509 862 OFFCURVE",
"1479 977 OFFCURVE",
"1418 1080 CURVE SMOOTH",
"1296 1287 OFFCURVE",
"1070 1411 OFFCURVE",
"829 1411 CURVE SMOOTH",
"706 1411 OFFCURVE",
"591 1382 OFFCURVE",
"485 1323 CURVE SMOOTH",
"272 1206 OFFCURVE",
"143 986 OFFCURVE",
"143 737 CURVE SMOOTH",
"143 609 OFFCURVE",
"172 494 OFFCURVE",
"231 391 CURVE SMOOTH",
"348 186 OFFCURVE",
"574 55 OFFCURVE",
"827 55 CURVE SMOOTH"
);
},
{
closed = 1;
nodes = (
"735 221 OFFCURVE",
"651 243 OFFCURVE",
"575 288 CURVE SMOOTH",
"422 376 OFFCURVE",
"330 542 OFFCURVE",
"330 735 CURVE SMOOTH",
"330 831 OFFCURVE",
"352 918 OFFCURVE",
"395 997 CURVE SMOOTH",
"482 1153 OFFCURVE",
"645 1247 OFFCURVE",
"829 1247 CURVE SMOOTH",
"919 1247 OFFCURVE",
"1002 1225 OFFCURVE",
"1078 1182 CURVE SMOOTH",
"1230 1094 OFFCURVE",
"1321 928 OFFCURVE",
"1321 735 CURVE SMOOTH",
"1321 637 OFFCURVE",
"1300 549 OFFCURVE",
"1257 471 CURVE SMOOTH",
"1172 314 OFFCURVE",
"1011 221 OFFCURVE",
"827 221 CURVE SMOOTH"
);
},
{
closed = 1;
nodes = (
"894 621 OFFCURVE",
"938 664 OFFCURVE",
"938 735 CURVE SMOOTH",
"938 806 OFFCURVE",
"898 850 OFFCURVE",
"834 850 CURVE SMOOTH",
"774 850 OFFCURVE",
"727 815 OFFCURVE",
"727 735 CURVE SMOOTH",
"727 656 OFFCURVE",
"774 621 OFFCURVE",
"834 621 CURVE SMOOTH"
);
}
);
width = 1653;
}
);
note = g43;
},
{
glyphname = g44;
lastChange = "2016-11-10 14:15:44 +0000";
layers = (
{
layerId = "5A681328-F9F0-479A-9637-309C8B5A293D";
paths = (
{
closed = 1;
nodes = (
"348 0 LINE",
"348 59 LINE SMOOTH",
"348 136 OFFCURVE",
"380 209 OFFCURVE",
"445 278 CURVE SMOOTH",
"509 346 OFFCURVE",
"623 425 OFFCURVE",
"786 516 CURVE",
"489 731 LINE",
"786 946 LINE",
"623 1037 OFFCURVE",
"509 1116 OFFCURVE",
"445 1184 CURVE SMOOTH",
"380 1252 OFFCURVE",
"348 1325 OFFCURVE",
"348 1403 CURVE SMOOTH",
"348 1462 LINE",
"164 1462 LINE",
"164 1391 LINE SMOOTH",
"164 1210 OFFCURVE",
"280 1062 OFFCURVE",
"512 934 CURVE",
"238 731 LINE",
"512 528 LINE",
"280 399 OFFCURVE",
"164 255 OFFCURVE",
"164 72 CURVE SMOOTH",
"164 0 LINE"
);
}
);
width = 838;
}
);
note = g44;
},
{
glyphname = g45;
lastChange = "2016-11-10 14:15:44 +0000";
layers = (
{
layerId = "5A681328-F9F0-479A-9637-309C8B5A293D";
paths = (
{
closed = 1;
nodes = (
"752 82 LINE",
"346 487 LINE",
"834 975 LINE",
"307 1503 LINE",
"182 1374 LINE",
"582 975 LINE",
"92 487 LINE",
"623 -41 LINE"
);
}
);
width = 928;
}
);
note = g45;
},
{
glyphname = g46;
lastChange = "2016-11-10 14:15:44 +0000";
layers = (
{
layerId = "5A681328-F9F0-479A-9637-309C8B5A293D";
paths = (
{
closed = 1;
nodes = (
"559 126 OFFCURVE",
"750 312 OFFCURVE",
"750 524 CURVE SMOOTH",
"750 582 OFFCURVE",
"725 650 OFFCURVE",
"674 727 CURVE",
"725 806 OFFCURVE",
"750 874 OFFCURVE",
"750 930 CURVE SMOOTH",
"750 1142 OFFCURVE",
"559 1330 OFFCURVE",
"176 1493 CURVE",
"102 1343 LINE",
"406 1223 OFFCURVE",
"575 1083 OFFCURVE",
"575 930 CURVE SMOOTH",
"575 902 OFFCURVE",
"569 877 OFFCURVE",
"557 854 CURVE",
"502 902 OFFCURVE",
"448 941 OFFCURVE",
"397 971 CURVE",
"313 831 LINE",
"394 784 OFFCURVE",
"447 750 OFFCURVE",
"471 727 CURVE",
"448 705 OFFCURVE",
"394 670 OFFCURVE",
"309 621 CURVE",
"387 479 LINE",
"461 523 OFFCURVE",
"517 561 OFFCURVE",
"555 592 CURVE",
"568 567 OFFCURVE",
"575 544 OFFCURVE",
"575 524 CURVE SMOOTH",
"575 374 OFFCURVE",
"417 237 OFFCURVE",
"102 113 CURVE",
"176 -35 LINE"
);
}
);
width = 872;
}
);
note = g46;
},
{
glyphname = g47;
lastChange = "2016-11-10 14:15:44 +0000";
layers = (
{
layerId = "5A681328-F9F0-479A-9637-309C8B5A293D";
paths = (
{
closed = 1;
nodes = (
"770 115 LINE",
"466 235 OFFCURVE",
"297 375 OFFCURVE",
"297 528 CURVE SMOOTH",
"297 556 OFFCURVE",
"303 581 OFFCURVE",
"315 604 CURVE",
"370 556 OFFCURVE",
"424 517 OFFCURVE",
"475 487 CURVE",
"559 627 LINE",
"478 674 OFFCURVE",
"425 708 OFFCURVE",
"401 731 CURVE",
"426 754 OFFCURVE",
"480 790 OFFCURVE",
"563 838 CURVE",
"485 979 LINE",
"406 931 OFFCURVE",
"350 893 OFFCURVE",
"317 866 CURVE",
"304 891 OFFCURVE",
"297 914 OFFCURVE",
"297 934 CURVE SMOOTH",
"297 1085 OFFCURVE",
"455 1222 OFFCURVE",
"770 1346 CURVE",
"696 1493 LINE",
"314 1332 OFFCURVE",
"123 1146 OFFCURVE",
"123 934 CURVE SMOOTH",
"123 878 OFFCURVE",
"148 810 OFFCURVE",
"199 731 CURVE",
"148 654 OFFCURVE",
"123 586 OFFCURVE",
"123 528 CURVE SMOOTH",
"123 314 OFFCURVE",
"314 126 OFFCURVE",
"696 -35 CURVE"
);
}
);
width = 872;
}
);
note = g47;
},
{
glyphname = g48;
lastChange = "2016-11-10 14:15:44 +0000";
layers = (
{
layerId = "5A681328-F9F0-479A-9637-309C8B5A293D";
paths = (
{
closed = 1;
nodes = (
"1534 731 LINE",
"782 1483 LINE",
"31 731 LINE",
"782 -20 LINE"
);
},
{
closed = 1;
nodes = (
"272 731 LINE",
"782 1241 LINE",
"1292 731 LINE",
"782 221 LINE"
);
},
{
closed = 1;
nodes = (
"838 616 OFFCURVE",
"887 652 OFFCURVE",
"887 731 CURVE SMOOTH",
"887 811 OFFCURVE",
"838 846 OFFCURVE",
"782 846 CURVE SMOOTH",
"722 846 OFFCURVE",
"676 811 OFFCURVE",
"676 731 CURVE SMOOTH",
"676 652 OFFCURVE",
"722 616 OFFCURVE",
"782 616 CURVE SMOOTH"
);
}
);
width = 1565;
}
);
note = g48;
},
{
glyphname = g49;
lastChange = "2016-11-10 14:15:44 +0000";
layers = (
{
layerId = "5A681328-F9F0-479A-9637-309C8B5A293D";
paths = (
{
closed = 1;
nodes = (
"774 0 LINE",
"774 1462 LINE",
"590 1462 LINE",
"590 743 LINE",
"141 1065 LINE",
"41 922 LINE",
"590 535 LINE",
"590 0 LINE"
);
}
);
width = 979;
}
);
note = g49;
},
{
glyphname = g50;
lastChange = "2016-11-10 14:15:44 +0000";
layers = (
{
layerId = "5A681328-F9F0-479A-9637-309C8B5A293D";
paths = (
{
closed = 1;
nodes = (
"389 0 LINE",
"389 535 LINE",
"938 922 LINE",
"838 1065 LINE",
"389 743 LINE",
"389 1462 LINE",
"205 1462 LINE",
"205 0 LINE"
);
}
);
width = 979;
}
);
note = g50;
},
{
glyphname = g51;
lastChange = "2016-11-10 14:15:44 +0000";
layers = (
{
layerId = "5A681328-F9F0-479A-9637-309C8B5A293D";
paths = (
{
closed = 1;
nodes = (
"774 0 LINE",
"774 1462 LINE",
"590 1462 LINE",
"41 1075 LINE",
"141 932 LINE",
"590 1253 LINE",
"590 0 LINE"
);
}
);
width = 979;
}
);
note = g51;
},
{
glyphname = g52;
lastChange = "2016-11-10 14:15:44 +0000";
layers = (
{
layerId = "5A681328-F9F0-479A-9637-309C8B5A293D";
paths = (
{
closed = 1;
nodes = (
"389 0 LINE",
"389 414 LINE",
"907 578 LINE",
"907 0 LINE",
"1092 0 LINE",
"1092 803 LINE",
"389 586 LINE",
"389 1073 LINE",
"907 1237 LINE",
"907 1055 LINE",
"1092 1055 LINE",
"1092 1462 LINE",
"389 1243 LINE",
"389 1462 LINE",
"205 1462 LINE",
"205 0 LINE"
);
}
);
width = 1296;
}
);
note = g52;
},
{
glyphname = g53;
lastChange = "2016-11-10 14:15:44 +0000";
layers = (
{
layerId = "5A681328-F9F0-479A-9637-309C8B5A293D";
paths = (
{
closed = 1;
nodes = (
"713 0 LINE",
"713 709 LINE",
"1214 1376 LINE",
"1081 1477 LINE",
"713 985 LINE",
"713 1462 LINE",
"528 1462 LINE",
"528 985 LINE",
"160 1477 LINE",
"27 1376 LINE",
"528 709 LINE",
"528 0 LINE"
);
}
);
width = 1241;
}
);
note = g53;
},
{
glyphname = g54;
lastChange = "2016-11-10 14:15:44 +0000";
layers = (
{
layerId = "5A681328-F9F0-479A-9637-309C8B5A293D";
paths = (
{
closed = 1;
nodes = (
"580 442 LINE",
"897 0 LINE",
"1047 92 LINE",
"672 608 LINE",
"672 1483 LINE",
"487 1483 LINE",
"487 608 LINE",
"113 92 LINE",
"262 0 LINE"
);
}
);
width = 1159;
}
);
note = g54;
},
{
glyphname = g55;
lastChange = "2016-11-10 14:15:44 +0000";
layers = (
{
layerId = "5A681328-F9F0-479A-9637-309C8B5A293D";
paths = (
{
closed = 1;
nodes = (
"592 465 LINE",
"897 0 LINE",
"1047 92 LINE",
"154 1462 LINE",
"-70 1462 LINE",
"489 614 LINE",
"113 92 LINE",
"262 0 LINE"
);
}
);
width = 1147;
}
);
note = g55;
},
{
glyphname = g56;
lastChange = "2016-11-10 14:15:44 +0000";
layers = (
{
layerId = "5A681328-F9F0-479A-9637-309C8B5A293D";
paths = (
{
closed = 1;
nodes = (
"317 0 LINE",
"401 151 OFFCURVE",
"436 285 OFFCURVE",
"436 430 CURVE SMOOTH",
"436 532 OFFCURVE",
"424 616 OFFCURVE",
"401 682 CURVE",
"852 420 LINE",
"852 0 LINE",
"1036 0 LINE",
"1036 1462 LINE",
"852 1462 LINE",
"852 608 LINE",
"289 932 LINE",
"178 840 LINE",
"231 709 OFFCURVE",
"258 576 OFFCURVE",
"258 440 CURVE SMOOTH",
"258 289 OFFCURVE",
"213 143 OFFCURVE",
"123 0 CURVE"
);
}
);
width = 1241;
}
);
note = g56;
},
{
glyphname = g57;
lastChange = "2016-11-10 14:15:44 +0000";
layers = (
{
layerId = "5A681328-F9F0-479A-9637-309C8B5A293D";
paths = (
{
closed = 1;
nodes = (
"389 0 LINE",
"389 1204 LINE",
"1159 391 LINE",
"1343 391 LINE",
"1343 1462 LINE",
"1159 1462 LINE",
"1159 657 LINE",
"389 1462 LINE",
"205 1462 LINE",
"205 0 LINE"
);
}
);
width = 1528;
}
);
note = g57;
},
{
glyphname = g58;
lastChange = "2016-11-10 14:15:44 +0000";
layers = (
{
layerId = "5A681328-F9F0-479A-9637-309C8B5A293D";
paths = (
{
closed = 1;
nodes = (
"1028 0 LINE",
"1028 1462 LINE",
"844 1462 LINE",
"82 817 LINE",
"82 635 LINE",
"844 0 LINE"
);
},
{
closed = 1;
nodes = (
"252 731 LINE",
"844 1239 LINE",
"844 229 LINE"
);
}
);
width = 1233;
}
);
note = g58;
},
{
glyphname = g59;
lastChange = "2016-11-10 14:15:44 +0000";
layers = (
{
layerId = "5A681328-F9F0-479A-9637-309C8B5A293D";
paths = (
{
closed = 1;
nodes = (
"389 0 LINE",
"1151 635 LINE",
"1151 817 LINE",
"389 1462 LINE",
"205 1462 LINE",
"205 0 LINE"
);
},
{
closed = 1;
nodes = (
"389 1239 LINE",
"981 731 LINE",
"389 229 LINE"
);
}
);
width = 1233;
}
);
note = g59;
},
{
glyphname = g60;
lastChange = "2016-11-10 14:15:44 +0000";
layers = (
{
layerId = "5A681328-F9F0-479A-9637-309C8B5A293D";
paths = (
{
closed = 1;
nodes = (
"698 0 LINE",
"797 284 OFFCURVE",
"974 419 OFFCURVE",
"1235 432 CURVE",
"1235 600 LINE",
"1011 589 OFFCURVE",
"834 508 OFFCURVE",
"725 367 CURVE",
"725 1462 LINE",
"541 1462 LINE",
"541 367 LINE",
"426 512 OFFCURVE",
"256 589 OFFCURVE",
"31 600 CURVE",
"31 432 LINE",
"297 419 OFFCURVE",
"476 275 OFFCURVE",
"567 0 CURVE"
);
}
);
width = 1266;
}
);
note = g60;
},
{
glyphname = g61;
lastChange = "2016-11-10 14:15:44 +0000";
layers = (
{
layerId = "5A681328-F9F0-479A-9637-309C8B5A293D";
paths = (
{
closed = 1;
nodes = (
"725 0 LINE",
"725 1096 LINE",
"833 953 OFFCURVE",
"1003 875 OFFCURVE",
"1235 862 CURVE",
"1235 1030 LINE",
"978 1043 OFFCURVE",
"797 1178 OFFCURVE",
"698 1462 CURVE",
"567 1462 LINE",
"476 1187 OFFCURVE",
"297 1043 OFFCURVE",
"31 1030 CURVE",
"31 862 LINE",
"260 875 OFFCURVE",
"430 953 OFFCURVE",
"541 1096 CURVE",
"541 0 LINE"
);
}
);
width = 1266;
}
);
note = g61;
},
{
glyphname = g62;
lastChange = "2016-11-10 14:15:44 +0000";
layers = (
{
layerId = "5A681328-F9F0-479A-9637-309C8B5A293D";
paths = (
{
closed = 1;
nodes = (
"1036 0 LINE",
"1036 1462 LINE",
"852 1462 LINE",
"852 1042 LINE",
"401 780 LINE",
"424 846 OFFCURVE",
"436 930 OFFCURVE",
"436 1032 CURVE SMOOTH",
"436 1197 OFFCURVE",
"389 1331 OFFCURVE",
"317 1462 CURVE",
"123 1462 LINE",
"213 1319 OFFCURVE",
"258 1173 OFFCURVE",
"258 1022 CURVE SMOOTH",
"258 885 OFFCURVE",
"231 752 OFFCURVE",
"178 623 CURVE",
"289 530 LINE",
"852 854 LINE",
"852 0 LINE"
);
}
);
width = 1241;
}
);
note = g62;
},
{
glyphname = g63;
lastChange = "2016-11-10 14:15:44 +0000";
layers = (
{
layerId = "5A681328-F9F0-479A-9637-309C8B5A293D";
paths = (
{
closed = 1;
nodes = (
"1026 0 LINE",
"1026 1462 LINE",
"842 1462 LINE",
"338 903 LINE",
"338 1462 LINE",
"154 1462 LINE",
"154 637 LINE",
"338 637 LINE",
"842 1204 LINE",
"842 0 LINE"
);
}
);
width = 1231;
}
);
note = g63;
},
{
glyphname = g64;
lastChange = "2016-11-10 14:15:44 +0000";
layers = (
{
layerId = "5A681328-F9F0-479A-9637-309C8B5A293D";
paths = (
{
closed = 1;
nodes = (
"725 0 LINE",
"725 1022 LINE",
"899 1229 LINE",
"1106 1024 LINE",
"1235 1147 LINE",
"899 1483 LINE",
"633 1180 LINE",
"367 1483 LINE",
"31 1147 LINE",
"160 1024 LINE",
"367 1229 LINE",
"541 1022 LINE",
"541 0 LINE"
);
}
);
width = 1266;
}
);
note = g64;
},
{
glyphname = g65;
lastChange = "2016-11-10 14:15:44 +0000";
layers = (
{
layerId = "5A681328-F9F0-479A-9637-309C8B5A293D";
paths = (
{
closed = 1;
nodes = (
"850 0 LINE",
"894 83 OFFCURVE",
"922 183 OFFCURVE",
"922 266 CURVE SMOOTH",
"922 383 OFFCURVE",
"881 470 OFFCURVE",
"823 540 CURVE SMOOTH",
"765 610 OFFCURVE",
"687 663 OFFCURVE",
"618 715 CURVE",
"643 829 OFFCURVE",
"670 919 OFFCURVE",
"699 984 CURVE SMOOTH",
"755 1114 OFFCURVE",
"821 1171 OFFCURVE",
"928 1171 CURVE",
"928 1356 LINE",
"923 1356 LINE SMOOTH",
"687 1356 OFFCURVE",
"549 1189 OFFCURVE",
"469 809 CURVE",
"332 914 OFFCURVE",
"279 1009 OFFCURVE",
"279 1124 CURVE SMOOTH",
"279 1216 OFFCURVE",
"319 1291 OFFCURVE",
"375 1332 CURVE SMOOTH",
"403 1354 LINE",
"303 1483 LINE",
"170 1412 OFFCURVE",
"92 1285 OFFCURVE",
"92 1128 CURVE SMOOTH",
"92 1061 OFFCURVE",
"103 1001 OFFCURVE",
"126 947 CURVE SMOOTH",
"170 839 OFFCURVE",
"239 758 OFFCURVE",
"416 635 CURVE SMOOTH",
"534 553 LINE SMOOTH",
"675 453 OFFCURVE",
"739 359 OFFCURVE",
"739 248 CURVE SMOOTH",
"739 173 OFFCURVE",
"715 90 OFFCURVE",
"666 0 CURVE"
);
}
);
width = 1071;
}
);
note = g65;
},
{
glyphname = g66;
lastChange = "2016-11-10 14:15:44 +0000";
layers = (
{
layerId = "5A681328-F9F0-479A-9637-309C8B5A293D";
paths = (
{
closed = 1;
nodes = (
"389 0 LINE",
"389 1462 LINE",
"205 1462 LINE",
"205 0 LINE"
);
}
);
width = 594;
}
);
note = g66;
},
{
glyphname = g67;
lastChange = "2016-11-10 14:15:44 +0000";
layers = (
{
layerId = "5A681328-F9F0-479A-9637-309C8B5A293D";
paths = (
{
closed = 1;
nodes = (
"1354 82 LINE",
"1354 1380 LINE",
"195 1380 LINE",
"195 82 LINE"
);
},
{
closed = 1;
nodes = (
"373 1219 LINE",
"1176 1219 LINE",
"1176 244 LINE",
"373 244 LINE"
);
}
);
width = 1548;
}
);
note = g67;
},
{
glyphname = g68;
lastChange = "2016-11-10 14:15:44 +0000";
layers = (
{
layerId = "5A681328-F9F0-479A-9637-309C8B5A293D";
paths = (
{
closed = 1;
nodes = (
"782 1241 LINE",
"1413 610 LINE",
"1534 731 LINE",
"782 1483 LINE",
"31 731 LINE",
"152 610 LINE"
);
}
);
width = 1565;
}
);
note = g68;
},
{
glyphname = g69;
lastChange = "2016-11-10 14:15:44 +0000";
layers = (
{
layerId = "5A681328-F9F0-479A-9637-309C8B5A293D";
paths = (
{
closed = 1;
nodes = (
"676 0 LINE",
"676 563 LINE",
"1022 563 LINE",
"1022 711 LINE",
"676 711 LINE",
"676 874 LINE",
"1051 1391 LINE",
"901 1483 LINE",
"584 1040 LINE",
"266 1483 LINE",
"117 1391 LINE",
"492 874 LINE",
"492 711 LINE",
"145 711 LINE",
"145 563 LINE",
"492 563 LINE",
"492 0 LINE"
);
}
);
width = 1171;
}
);
note = g69;
},
{
glyphname = g70;
lastChange = "2016-11-10 14:15:44 +0000";
layers = (
{
layerId = "5A681328-F9F0-479A-9637-309C8B5A293D";
paths = (
{
closed = 1;
nodes = (
"672 0 LINE",
"672 874 LINE",
"850 1118 LINE",
"1026 983 LINE",
"1116 1100 LINE",
"936 1239 LINE",
"1047 1391 LINE",
"897 1483 LINE",
"799 1348 LINE",
"627 1483 LINE",
"535 1364 LINE",
"713 1225 LINE",
"580 1040 LINE",
"262 1483 LINE",
"113 1391 LINE",
"487 874 LINE",
"487 0 LINE"
);
}
);
width = 1303;
}
);
note = g70;
},
{
glyphname = g71;
lastChange = "2016-11-10 14:15:44 +0000";
layers = (
{
layerId = "5A681328-F9F0-479A-9637-309C8B5A293D";
paths = (
{
closed = 1;
nodes = (
"756 0 LINE",
"1182 467 LINE",
"756 889 LINE",
"756 1245 LINE",
"1145 928 LINE",
"1235 1059 LINE",
"664 1520 LINE",
"92 1059 LINE",
"182 928 LINE",
"571 1245 LINE",
"571 889 LINE",
"145 467 LINE",
"571 0 LINE"
);
},
{
closed = 1;
nodes = (
"377 463 LINE",
"664 754 LINE",
"950 463 LINE",
"664 156 LINE"
);
}
);
width = 1327;
}
);
note = g71;
},
{
glyphname = g72;
lastChange = "2016-11-10 14:15:44 +0000";
layers = (
{
layerId = "5A681328-F9F0-479A-9637-309C8B5A293D";
paths = (
{
closed = 1;
nodes = (
"782 1241 LINE",
"1413 610 LINE",
"1534 731 LINE",
"782 1483 LINE",
"31 731 LINE",
"152 610 LINE"
);
},
{
closed = 1;
nodes = (
"782 610 LINE",
"1413 -20 LINE",
"1534 100 LINE",
"782 852 LINE",
"31 100 LINE",
"152 -20 LINE"
);
}
);
width = 1565;
}
);
note = g72;
},
{
glyphname = g73;
lastChange = "2016-11-10 14:15:44 +0000";
layers = (
{
layerId = "5A681328-F9F0-479A-9637-309C8B5A293D";
paths = (
{
closed = 1;
nodes = (
"389 0 LINE",
"389 420 LINE",
"840 682 LINE",
"817 616 OFFCURVE",
"805 532 OFFCURVE",
"805 430 CURVE SMOOTH",
"805 287 OFFCURVE",
"840 153 OFFCURVE",
"924 0 CURVE",
"1118 0 LINE",
"1028 143 OFFCURVE",
"983 289 OFFCURVE",
"983 440 CURVE SMOOTH",
"983 576 OFFCURVE",
"1010 709 OFFCURVE",
"1063 840 CURVE",
"952 932 LINE",
"389 608 LINE",
"389 1462 LINE",
"205 1462 LINE",
"205 0 LINE"
);
}
);
width = 1241;
}
);
note = g73;
},
{
glyphname = g74;
lastChange = "2016-11-10 14:15:44 +0000";
layers = (
{
layerId = "5A681328-F9F0-479A-9637-309C8B5A293D";
paths = (
{
closed = 1;
nodes = (
"1323 0 LINE",
"1323 1462 LINE",
"1139 1462 LINE",
"369 657 LINE",
"369 1462 LINE",
"184 1462 LINE",
"184 391 LINE",
"369 391 LINE",
"1139 1204 LINE",
"1139 0 LINE"
);
}
);
width = 1528;
}
);
note = g74;
},
{
glyphname = g75;
lastChange = "2016-11-10 14:15:44 +0000";
layers = (
{
layerId = "5A681328-F9F0-479A-9637-309C8B5A293D";
paths = (
{
closed = 1;
nodes = (
"1390 90 OFFCURVE",
"1468 267 OFFCURVE",
"1468 467 CURVE SMOOTH",
"1468 751 OFFCURVE",
"1313 984 OFFCURVE",
"1065 1092 CURVE",
"1389 1462 LINE",
"1155 1462 LINE",
"885 1141 LINE",
"877 1143 LINE",
"877 1462 LINE",
"692 1462 LINE",
"692 1143 LINE",
"583 1128 OFFCURVE",
"483 1090 OFFCURVE",
"392 1028 CURVE SMOOTH",
"211 903 OFFCURVE",
"102 698 OFFCURVE",
"102 469 CURVE SMOOTH",
"102 274 OFFCURVE",
"182 96 OFFCURVE",
"326 -35 CURVE",
"444 90 LINE",
"349 181 OFFCURVE",
"291 312 OFFCURVE",
"291 469 CURVE SMOOTH",
"291 566 OFFCURVE",
"312 654 OFFCURVE",
"355 733 CURVE SMOOTH",
"439 889 OFFCURVE",
"600 983 OFFCURVE",
"784 983 CURVE SMOOTH",
"875 983 OFFCURVE",
"959 961 OFFCURVE",
"1036 917 CURVE SMOOTH",
"1189 829 OFFCURVE",
"1282 662 OFFCURVE",
"1282 469 CURVE SMOOTH",
"1282 306 OFFCURVE",
"1220 171 OFFCURVE",
"1116 80 CURVE",
"1239 -41 LINE"
);
}
);
width = 1579;
}
);
note = g75;
},
{
glyphname = g76;
lastChange = "2016-11-10 14:15:44 +0000";
layers = (
{
layerId = "5A681328-F9F0-479A-9637-309C8B5A293D";
paths = (
{
closed = 1;
nodes = (
"385 0 LINE",
"807 592 LINE",
"1235 0 LINE",
"1405 0 LINE",
"1405 1462 LINE",
"1235 1462 LINE",
"807 868 LINE",
"385 1462 LINE",
"205 1462 LINE",
"205 0 LINE"
);
},
{
closed = 1;
nodes = (
"385 1153 LINE",
"393 1153 LINE",
"700 731 LINE",
"393 307 LINE",
"385 307 LINE"
);
},
{
closed = 1;
nodes = (
"915 731 LINE",
"1227 1165 LINE",
"1235 1165 LINE",
"1235 295 LINE",
"1227 295 LINE"
);
}
